<svg width="68" height="69" xmlns="http://www.w3.org/2000/svg" xmlns:xlink="http://www.w3.org/1999/xlink" xml:space="preserve" overflow="hidden"><g transform="translate(-1012 -304)"><g><g><g><g><path d="M67 33.5C67 52.0015 52.0015 67 33.5 67 14.9985 67 0 52.0015 0 33.5-6.612e-15 14.9985 14.9985 0 33.5-6.612e-15 52.0015-1.3224e-14 67 14.9985 67 33.5Z" fill="#333333" fill-rule="nonzero" fill-opacity="1" transform="matrix(1 0 0 1.01493 1013 305)"/><path d="M44.6201 16.2196C44.6201 14.7307 45.8299 13.614 47.2257 13.614L48.9007 13.614C50.3896 13.614 51.5062 14.8238 51.5062 16.2196L51.5062 46.0904C51.5062 47.5793 50.2965 48.696 48.9007 48.696L47.2257 48.696C45.7368 48.696 44.6201 47.4863 44.6201 46.0904L44.6201 16.2196ZM36.5243 16.2196C36.5243 14.7307 37.734 13.614 39.1299 13.614L40.8049 13.614C42.2938 13.614 43.4104 14.8238 43.4104 16.2196L43.4104 46.0904C43.4104 47.5793 42.2007 48.696 40.8049 48.696L39.1299 48.696C37.641 48.696 36.5243 47.4863 36.5243 46.0904L36.5243 16.2196ZM28.4285 16.2196C28.4285 14.7307 29.6382 13.614 31.034 13.614L32.709 13.614C34.1979 13.614 35.3146 14.8238 35.3146 16.2196L35.3146 46.0904C35.3146 47.5793 34.1049 48.696 32.709 48.696L31.034 48.696C29.5451 48.696 28.4285 47.4863 28.4285 46.0904L28.4285 16.2196ZM20.3326 16.2196C20.3326 14.7307 21.5424 13.614 22.9382 13.614L24.6132 13.614C26.1021 13.614 27.2188 14.8238 27.2188 16.2196L27.2188 46.0904C27.2188 47.5793 26.009 48.696 24.6132 48.696L22.9382 48.696C21.4493 48.696 20.3326 47.4863 20.3326 46.0904L20.3326 16.2196ZM12.3299 16.2196C12.3299 14.7307 13.5396 13.614 14.9354 13.614L16.6104 13.614C18.0993 13.614 19.216 14.8238 19.216 16.2196L19.216 46.0904C19.216 47.5793 18.0063 48.696 16.6104 48.696L14.9354 48.696C13.4465 48.696 12.3299 47.4863 12.3299 46.0904L12.3299 16.2196ZM54.8563 31.6668 54.8563 47.3001C54.8563 49.9988 52.5299 52.3251 49.8312 52.3251L14.284 52.3251C11.5854 52.3251 9.25903 49.9988 9.25903 47.3001L9.25903 31.6668 2.65208 31.6668 2.65208 30.0849 10.841 30.0849 10.841 31.6668 10.841 47.3001C10.841 49.1613 12.4229 50.8363 14.3771 50.8363L49.8312 50.8363C51.6924 50.8363 53.3674 49.2543 53.3674 47.3001L53.3674 30.0849 57.5549 30.0849 57.5549 27.014 64.3479 30.9224 57.5549 34.8307 57.5549 31.6668 54.8563 31.6668Z" fill="#FFFFFF" fill-rule="nonzero" fill-opacity="1" transform="matrix(1 0 0 1.01493 1013 305)"/></g></g></g></g></g></svg>